<svg xmlns="http://www.w3.org/2000/svg" xmlns:xlink="http://www.w3.org/1999/xlink" width="108" height="108" viewBox="0 0 108 108">
  <defs>
    <filter id="Ellipse_8" x="0" y="0" width="108" height="108" filterUnits="userSpaceOnUse">
      <feOffset dy="10" input="SourceAlpha"/>
      <feGaussianBlur stdDeviation="10" result="blur"/>
      <feFlood flood-color="#c4c8d0" flood-opacity="0.4"/>
      <feComposite operator="in" in2="blur"/>
      <feComposite in="SourceGraphic"/>
    </filter>
  </defs>
  <g id="Group_2627" data-name="Group 2627" transform="translate(-1283.195 -284.369)">
    <g transform="matrix(1, 0, 0, 1, 1283.2, 284.37)" filter="url(#Ellipse_8)">
      <circle id="Ellipse_8-2" data-name="Ellipse 8" cx="24" cy="24" r="24" transform="translate(30 20)" fill="#fe0002"/>
    </g>
    <g id="__TEMP__SVG__" transform="translate(1324.776 315.95)">
      <path id="Path_20745" data-name="Path 20745" d="M23.327,4.657H1.593A1.512,1.512,0,0,1,.5,4.208,1.466,1.466,0,0,1,.041,3.117a1.526,1.526,0,0,1,.449-1.1,1.48,1.48,0,0,1,1.1-.461H9.355A1.512,1.512,0,0,1,9.8.461,1.48,1.48,0,0,1,10.907,0h3.1a1.48,1.48,0,0,1,1.1.461,1.512,1.512,0,0,1,.449,1.092h7.762a1.492,1.492,0,0,1,1.092.461,1.506,1.506,0,0,1,.461,1.1,1.466,1.466,0,0,1-.461,1.092A1.512,1.512,0,0,1,23.327,4.657Zm0,17.077a3.106,3.106,0,0,1-3.1,3.1H4.7a2.991,2.991,0,0,1-2.2-.91,2.991,2.991,0,0,1-.91-2.2V6.21H23.327ZM7.8,10.867A1.574,1.574,0,0,0,6.238,9.314a1.466,1.466,0,0,0-1.092.461A1.512,1.512,0,0,0,4.7,10.867v9.314a1.532,1.532,0,0,0,1.54,1.552,1.526,1.526,0,0,0,1.1-.449,1.48,1.48,0,0,0,.461-1.1Zm6.21,0a1.574,1.574,0,0,0-1.565-1.552,1.466,1.466,0,0,0-1.092.461,1.512,1.512,0,0,0-.449,1.092v9.314a1.532,1.532,0,0,0,1.54,1.552,1.526,1.526,0,0,0,1.1-.449,1.48,1.48,0,0,0,.461-1.1Zm6.21,0a1.574,1.574,0,0,0-1.565-1.552,1.466,1.466,0,0,0-1.092.461,1.512,1.512,0,0,0-.449,1.092v9.314a1.532,1.532,0,0,0,1.54,1.552,1.526,1.526,0,0,0,1.1-.449,1.48,1.48,0,0,0,.461-1.1Z" transform="translate(-0.041)" fill="#fff"/>
    </g>
  </g>
</svg>
