<svg xmlns="http://www.w3.org/2000/svg" xmlns:xlink="http://www.w3.org/1999/xlink" width="108" height="108" viewBox="0 0 108 108">
  <defs>
    <filter id="Ellipse_8" x="0" y="0" width="108" height="108" filterUnits="userSpaceOnUse">
      <feOffset dy="10" input="SourceAlpha"/>
      <feGaussianBlur stdDeviation="10" result="blur"/>
      <feFlood flood-color="#c4c8d0" flood-opacity="0.4"/>
      <feComposite operator="in" in2="blur"/>
      <feComposite in="SourceGraphic"/>
    </filter>
  </defs>
  <g id="Group_2628" data-name="Group 2628" transform="translate(-1283.195 -284.369)">
    <g transform="matrix(1, 0, 0, 1, 1283.2, 284.37)" filter="url(#Ellipse_8)">
      <circle id="Ellipse_8-2" data-name="Ellipse 8" cx="24" cy="24" r="24" transform="translate(30 20)" fill="#02aff3"/>
    </g>
    <g id="edit" transform="translate(1324.896 316.07)">
      <path id="Path_20746" data-name="Path 20746" d="M0,19.473,15.117,4.356,20.242,9.48,5.125,24.6H0ZM24.213,5.509l-2.5,2.5L16.591,2.883l2.5-2.5a1.393,1.393,0,0,1,1.922,0l3.2,3.2a1.3,1.3,0,0,1,.384.961A1.3,1.3,0,0,1,24.213,5.509Z" fill="#fff"/>
    </g>
  </g>
</svg>
